<svg xmlns="http://www.w3.org/2000/svg" width="461" height="142" viewBox="0 0 461 142">
    <g fill="#FFF">
        <path d="M88.08 132c-.542-.25-1.038-.588-1.47-1-.328-.336-.508-.79-.5-1.26-.016-.459.158-.903.48-1.23.287-.302.684-.475 1.1-.48.424.001.828.183 1.11.5.247.32.433.683.55 1.07v.09l1.89-.73v-.09c-.367-1.257-1.367-2.228-2.633-2.558-1.267-.33-2.614.03-3.547.948-.68.654-1.064 1.557-1.064 2.5 0 .943.384 1.846 1.064 2.5.756.714 1.666 1.244 2.66 1.55.746.305 1.426.754 2 1.32 1.111 1.16 1.111 2.99 0 4.15-.52.547-1.245.852-2 .84-.727.006-1.425-.287-1.93-.81-.567-.658-.888-1.492-.91-2.36v-.12l-2 .73v.08c.133 1.085.618 2.097 1.38 2.88 1.933 1.933 5.067 1.933 7 0 .912-.88 1.427-2.093 1.427-3.36s-.515-2.48-1.427-3.36c-.899-.848-1.99-1.466-3.18-1.8M102.74 133.17L96.71 133.17 96.71 126.41 94.6 126.41 94.6 141.79 96.71 141.79 96.71 135.03 102.74 135.03 102.74 141.79 104.85 141.79 104.85 126.41 102.74 126.41zM108.01 126.41H110.12V141.79H108.01zM113.03 141.79L115.14 141.79 115.14 135.03 120.59 135.03 120.59 133.17 115.14 133.17 115.14 128.27 120.59 128.27 120.59 126.41 113.03 126.41zM122.36 128.27L125.99 128.27 125.99 141.79 128.09 141.79 128.09 128.27 131.71 128.27 131.71 126.41 122.36 126.41zM139.7 128.27L143.33 128.27 143.33 141.79 145.43 141.79 145.43 128.27 149.04 128.27 149.04 126.41 139.7 126.41zM158 126.2c-2.128-.039-4.176.805-5.66 2.33-1.49 1.465-2.329 3.466-2.329 5.555 0 2.089.84 4.09 2.329 5.555 3.147 3.093 8.193 3.093 11.34 0 1.485-1.467 2.32-3.468 2.32-5.555 0-2.087-.835-4.088-2.32-5.555-1.49-1.527-3.546-2.37-5.68-2.33m0 13.89c-1.557.013-3.051-.616-4.13-1.74-2.318-2.37-2.318-6.16 0-8.53 1.085-1.119 2.577-1.75 4.135-1.75 1.558 0 3.05.631 4.135 1.75 2.318 2.37 2.318 6.16 0 8.53-1.082 1.125-2.58 1.755-4.14 1.74M178.5 126.41h-3.3v15.38h3.3c2.185.123 4.327-.642 5.94-2.12 1.505-1.46 2.346-3.473 2.33-5.57.024-2.076-.804-4.07-2.29-5.52-1.626-1.503-3.79-2.285-6-2.17m-1.19 1.89h1.18c1.598-.089 3.167.454 4.37 1.51 1.149 1.13 1.785 2.68 1.76 4.29.03 1.609-.607 3.158-1.76 4.28-1.193 1.074-2.767 1.625-4.37 1.53h-1.18V128.3zM188.72 126.41H190.83V141.79H188.72zM200.9 128.11c1.59.056 3.103.706 4.24 1.82l.07.06 1.48-1.31-.08-.08c-1.53-1.491-3.574-2.34-5.71-2.37-2.13-.038-4.182.805-5.67 2.33-1.478 1.466-2.31 3.463-2.31 5.545s.832 4.079 2.31 5.545c3.106 3.023 8.054 3.023 11.16 0v-5.36h-2.1V139c-.979.751-2.186 1.143-3.42 1.11-1.555.013-3.048-.612-4.13-1.73-2.305-2.368-2.305-6.142 0-8.51 1.078-1.125 2.572-1.754 4.13-1.74M209.6 126.41H211.71V141.79H209.6zM223.12 126.41L213.78 126.41 213.78 128.27 217.41 128.27 217.41 141.79 219.51 141.79 219.51 128.27 223.12 128.27zM229.57 126.41h-1.8l-5.64 15.38h2.2l2.33-6.31h4l2.29 6.31h2.19l-5.54-15.31-.03-.07zm.4 7.23h-2.63l1.32-3.64 1.31 3.64zM238.86 126.41L236.75 126.41 236.75 141.79 244.31 141.79 244.31 139.93 238.86 139.93zM253.47 126.41H255.58V141.79H253.47zM269.43 138.33L260.93 126.41 258.89 126.41 258.89 141.79 261 141.79 261 130.18 269.28 141.79 271.54 141.79 271.54 126.41 269.43 126.41zM285.71 138.27c-1.137 1.114-2.65 1.764-4.24 1.82-1.555.013-3.048-.612-4.13-1.73-2.305-2.368-2.305-6.142 0-8.51 1.08-1.12 2.573-1.75 4.13-1.74 1.59.056 3.103.706 4.24 1.82l.07.06 1.48-1.31-.08-.08c-1.529-1.493-3.573-2.342-5.71-2.37-2.13-.037-4.181.806-5.67 2.33-1.478 1.466-2.31 3.463-2.31 5.545s.832 4.079 2.31 5.545c1.494 1.515 3.543 2.35 5.67 2.31 2.135-.027 4.179-.871 5.71-2.36l.08-.07-1.48-1.32-.07.06zM291.18 126.41L289.07 126.41 289.07 141.79 296.63 141.79 296.63 139.93 291.18 139.93zM306.91 136.71c.01.898-.351 1.76-1 2.38-.57.637-1.385 1.001-2.24 1-.86-.002-1.68-.365-2.26-1-.649-.62-1.01-1.482-1-2.38v-10.3h-2.11v10.3c-.014 1.38.543 2.705 1.54 3.66 2.093 2.056 5.447 2.056 7.54 0 .86-.84 1.409-1.947 1.56-3.14v-10.82h-2.11l.08 10.3zM315.63 132c-.539-.25-1.032-.588-1.46-1-.332-.334-.513-.79-.5-1.26-.016-.459.158-.903.48-1.23.282-.312.684-.49 1.105-.49.421 0 .823.178 1.105.49.243.321.426.684.54 1.07v.09l1.89-.73v-.09c-.168-.592-.477-1.134-.9-1.58-.699-.716-1.66-1.113-2.66-1.1-.984-.023-1.933.365-2.62 1.07-.68.654-1.064 1.557-1.064 2.5 0 .943.384 1.846 1.064 2.5.755.716 1.665 1.246 2.66 1.55.746.305 1.426.754 2 1.32.551.545.852 1.295.83 2.07.015.779-.288 1.53-.84 2.08-.521.545-1.246.85-2 .84-.727.006-1.425-.287-1.93-.81-.563-.66-.883-1.493-.91-2.36v-.12l-2 .73v.08c.127 1.087.613 2.1 1.38 2.88 1.933 1.933 5.067 1.933 7 0 .907-.883 1.418-2.095 1.418-3.36 0-1.265-.511-2.477-1.418-3.36-.863-.846-1.916-1.473-3.07-1.83M322.45 126.41H324.56V141.79H322.45zM334.5 126.2c-2.127-.038-4.176.806-5.66 2.33-1.49 1.465-2.329 3.466-2.329 5.555 0 2.089.84 4.09 2.329 5.555 3.147 3.093 8.193 3.093 11.34 0 1.485-1.467 2.32-3.468 2.32-5.555 0-2.087-.835-4.088-2.32-5.555-1.49-1.527-3.546-2.37-5.68-2.33m0 13.89c-1.555.014-3.046-.616-4.12-1.74-2.335-2.364-2.335-6.166 0-8.53 1.083-1.118 2.573-1.75 4.13-1.75s3.047.632 4.13 1.75c2.318 2.37 2.318 6.16 0 8.53-1.08 1.127-2.579 1.757-4.14 1.74M354.86 126.41L354.86 138.33 346.37 126.41 344.32 126.41 344.32 141.79 346.43 141.79 346.43 130.18 354.71 141.79 356.97 141.79 356.97 126.41zM27.71 42.67c-5.667-1.71-10.85-4.731-15.13-8.82-3.726-3.611-5.792-8.602-5.71-13.79-.012-5.245 2.128-10.266 5.92-13.89 3.866-3.961 9.206-6.135 14.74-6 5.597-.08 10.98 2.144 14.89 6.15 2.359 2.51 4.075 5.553 5 8.87L37.62 19c-1.21-3.28-2.31-5.41-3.28-6.38-1.718-1.918-4.165-3.021-6.74-3.038-2.575-.018-5.037 1.053-6.78 2.948-1.977 1.99-3.044 4.707-2.95 7.51-.07 2.85 1.012 5.607 3 7.65 2.553 2.324 5.468 4.215 8.63 5.6 6.585 2.043 12.586 5.633 17.5 10.47 5.153 4.95 8.073 11.781 8.09 18.926.017 7.145-2.87 13.99-8 18.964-5.147 5.26-12.242 8.156-19.6 8-7.427.127-14.57-2.848-19.71-8.21C3.456 77.044.719 71.334 0 65.21l10.57-3.82c.667 6.36 2.473 10.997 5.42 13.91 3.007 3.15 7.185 4.914 11.54 4.87 4.442.026 8.697-1.783 11.76-5 3.314-3.273 5.124-7.773 5-12.43.13-4.618-1.654-9.084-4.93-12.34-3.353-3.302-7.317-5.92-11.67-7.71M65.35 1.21H76.35V88.66999999999999H65.35zM169.34 1.22L169.34 88.67 158.34 88.67 158.34 17.57 129.59 55.31 100.78 17.57 100.78 88.67 89.78 88.67 89.78 1.22 101.51 1.22 129.59 37.99 157.61 1.22zM246.6 88.67L246.6 1.21 257.6 1.21 257.6 79.13 289.03 79.13 289.03 88.67zM365.64 13.25c8.569 8.24 13.353 19.653 13.22 31.54.154 11.92-4.63 23.373-13.22 31.64-17.904 17.624-46.636 17.624-64.54 0-8.59-8.267-13.374-19.72-13.22-31.64-.133-11.887 4.651-23.3 13.22-31.54 17.886-17.667 46.654-17.667 64.54 0m-32.3-3.65c-9.133-.081-17.891 3.626-24.19 10.24-6.709 6.566-10.404 15.615-10.21 25-.194 9.385 3.501 18.434 10.21 25 6.367 6.529 15.1 10.21 24.22 10.21s17.853-3.681 24.22-10.21c6.709-6.566 10.404-15.615 10.21-25 .18-9.368-3.514-18.396-10.21-24.95-6.312-6.636-15.091-10.362-24.25-10.29M400.07 1.22L449.91 71.11 449.91 1.22 460.91 1.22 460.91 88.67 448.76 88.67 400.19 20.54 400.19 88.67 389.19 88.67 389.19 1.22z"/>
        <path d="M339.41 27.41h-13.35v13.35h13.35V27.41zm0 23.82h-13.35v13.35h13.35V51.23zM228 10.72c-5.279-5.315-12.208-8.676-19.65-9.53h-26.04v87.46h11V64.38h11.62c8.638.19 16.968-3.214 23-9.4 6.034-5.825 9.407-13.874 9.33-22.26.099-8.288-3.23-16.25-9.2-22M219.8 48c-3.85 3.938-9.133 6.143-14.64 6.11h-11.85V11.5h11.85c5.5-.04 10.781 2.15 14.64 6.07 4.125 3.944 6.395 9.445 6.25 15.15.16 5.746-2.109 11.293-6.25 15.28"/>
    </g>
</svg>
